<?xml version="1.0" encoding="utf-8"?>
<!-- Generator: Adobe Illustrator 25.4.1, SVG Export Plug-In . SVG Version: 6.00 Build 0)  -->
<svg version="1.1" id="Layer_1" xmlns="http://www.w3.org/2000/svg" xmlns:xlink="http://www.w3.org/1999/xlink" x="0px" y="0px"
	 viewBox="0 0 256 256" style="enable-background:new 0 0 256 256;" xml:space="preserve">
<style type="text/css">
	
		.st0{clip-path:url(#SVGID_00000139295778773537638870000014086560858774267015_);fill:url(#SVGID_00000182524188694675672730000003776101504560099713_);}
	.st1{fill:#FFFFFF;}
</style>
<g>
	<defs>
		<circle id="SVGID_1_" cx="128" cy="128" r="128"/>
	</defs>
	<clipPath id="SVGID_00000150799004972859621640000003257483628947596215_">
		<use xlink:href="#SVGID_1_"  style="overflow:visible;"/>
	</clipPath>
	
		<linearGradient id="SVGID_00000121249672809952821510000013276951956473357452_" gradientUnits="userSpaceOnUse" x1="181.4623" y1="274.8866" x2="74.5377" y2="-18.8866">
		<stop  offset="0" style="stop-color:#361AFF"/>
		<stop  offset="1" style="stop-color:#FE5C69"/>
	</linearGradient>
	
		<path style="clip-path:url(#SVGID_00000150799004972859621640000003257483628947596215_);fill:url(#SVGID_00000121249672809952821510000013276951956473357452_);" d="
		M52.9-7.1h150.2c33.2,0,60.1,26.9,60.1,60.1v150.2c0,33.2-26.9,60.1-60.1,60.1H52.9c-33.2,0-60.1-26.9-60.1-60.1V52.9
		C-7.1,19.7,19.7-7.1,52.9-7.1z"/>
</g>
<path class="st1" d="M171.3,135.5c-0.5-0.3-1.2-0.2-1.6,0.4c-0.1,0.1-0.1,0.3-0.2,0.5c-0.2,1.7-1.1,9.3-1.2,10.9
	c0,0.4-0.4,0.6-0.7,0.6c0,0,0,0,0,0c-0.3,0-0.5-0.2-0.6-0.5c-0.9-4.2-3.8-22.1-4-23.6c-1.2-8.1-2.4-15.8-1.3-19.8
	c1.6-5.7,8.3-8.1,15.6-10.3c5-1.5,9.3-2.8,10.8-7.4c0.8-2.6,0.3-5.4-1.4-7.5c-4.9-6.4-31.6-13-50.8-5.3c-15.2,6-28.8,21.4-38.7,35.4
	c-1.4,2-3.6,5.5-7.1,11c-3,4.7-7.9,13.8-9.6,16.9c-0.2,0.3-0.6,0.4-0.9,0.2c-0.2-0.1-0.3-0.4-0.3-0.6c2.2-8.3,5.2-16.3,8.9-24
	c0.3-0.5,0-1.2-0.5-1.5c0,0,0,0,0,0c-0.2-0.1-0.3-0.1-0.5-0.1c-1.8,0-3.6,0-5.3,0.2c-9.6,0.6-26.3,3.6-30.1,16.4
	c-2.8,9.3,2,20.9,13.5,31.7c10.9,10.3,26.5,18.9,43.8,24.2c12.6,3.8,25.7,5.7,38.9,5.8c22.1,0,41-6.1,44.9-18.9l0,0
	C196.6,157.4,188,146,171.3,135.5z M134.8,140.2c-7.3,5.2-16.5,8.5-18.9,8.8c-1.4,0.2-2.9-0.6-2.2-2l6.9-12.1
	c0.7-1.2,0.3-2.8-0.9-3.5c-0.2-0.1-0.3-0.2-0.5-0.2l-8.1-2.5c-0.7-0.2-1.2-1-1-1.7c0.4-2,3.3-6.3,7.5-10.3
	c4.7-4.3,10.2-7.7,16.1-10.1c1.8-0.7,3.1,0.4,2.3,1.9l-7.1,11.6c-0.8,1.4-1.1,2.8,1.4,3.7c4.5,1.3,9.1,2.3,13.8,3
	c0.6,0,1.2,0.5,1.2,1.1c0,0.2,0,0.4-0.2,0.6C144.3,131,141.5,135.5,134.8,140.2z"/>
</svg>
